<svg width="21" height="20" viewBox="0 0 21 20" fill="none" xmlns="http://www.w3.org/2000/svg">
<path d="M16.5818 16.5C17.1218 16.5 17.5818 16.96 17.5818 17.5C17.5818 18.04 17.1218 18.5 16.5818 18.5H4.58176C4.04176 18.5 3.58176 18.04 3.58176 17.5C3.58176 16.96 4.04176 16.5 4.58176 16.5H16.5818ZM16.5818 15H4.58176C3.21176 15 2.08176 16.13 2.08176 17.5C2.08176 18.87 3.21176 20 4.58176 20H16.5818C17.2448 20 17.8807 19.7366 18.3495 19.2678C18.8184 18.7989 19.0818 18.163 19.0818 17.5C19.0818 16.837 18.8184 16.2011 18.3495 15.7322C17.8807 15.2634 17.2448 15 16.5818 15ZM19.0818 9H16.0818V5H11.0818L8.08176 9V14H20.0818L19.0818 9ZM9.62176 9L11.5818 6.5H14.0818V9H9.62176ZM7.84176 1.41L2.84176 0L0.0817617 9.83C-0.258238 11.11 0.491762 12.44 1.78176 12.8L2.94176 13.12L6.23176 10.29L2.35176 9.21L4.23176 2.46L7.02176 3.24C7.58176 3.53 8.79176 4.34 9.55176 5.37L10.5818 4H11.0218C9.76176 2.41 7.93176 1.46 7.84176 1.41Z" fill="white"/>
</svg>
