<svg width="19" height="19" viewBox="0 0 19 19" fill="none" xmlns="http://www.w3.org/2000/svg">
<g clip-path="url(#clip0_127_225)">
<path d="M11.568 17.5364C11.5357 17.4973 11.51 17.4509 11.4925 17.3998C11.475 17.3487 11.466 17.2939 11.466 17.2385C11.466 17.1832 11.475 17.1284 11.4925 17.0773C11.51 17.0262 11.5357 16.9798 11.568 16.9407L17.2349 10.0809L2.77079 10.0809C2.67854 10.0809 2.59008 10.0365 2.52485 9.95758C2.45962 9.87862 2.42297 9.77153 2.42297 9.65986C2.42297 9.5482 2.45962 9.4411 2.52485 9.36214C2.59008 9.28319 2.67854 9.23883 2.77079 9.23883L17.2349 9.23883L11.568 2.37907C11.5357 2.33995 11.5101 2.29351 11.4926 2.2424C11.4751 2.19129 11.4661 2.13651 11.4661 2.08118C11.4661 2.02586 11.4751 1.97108 11.4926 1.91997C11.5101 1.86886 11.5357 1.82242 11.568 1.7833C11.6003 1.74418 11.6387 1.71315 11.6809 1.69198C11.7232 1.67081 11.7684 1.65991 11.8141 1.65991C11.8598 1.65991 11.9051 1.67081 11.9473 1.69198C11.9895 1.71315 12.0279 1.74418 12.0602 1.7833L18.321 9.36198C18.3533 9.40108 18.379 9.44752 18.3965 9.49863C18.414 9.54974 18.423 9.60453 18.423 9.65986C18.423 9.71519 18.414 9.76998 18.3965 9.8211C18.379 9.87221 18.3533 9.91864 18.321 9.95775L12.0602 17.5364C12.0279 17.5756 11.9895 17.6066 11.9473 17.6278C11.9051 17.649 11.8598 17.6599 11.8141 17.6599C11.7684 17.6599 11.7231 17.649 11.6809 17.6278C11.6387 17.6066 11.6003 17.5756 11.568 17.5364Z" fill="#E0563B"/>
</g>
<defs>
<clipPath id="clip0_127_225">
<rect width="18" height="18" fill="white" transform="matrix(0 1 -1 0 18.7275 0.727539)"/>
</clipPath>
</defs>
</svg>
