<svg width="36" height="36" viewBox="0 0 36 36" fill="none" xmlns="http://www.w3.org/2000/svg">
<path d="M6.924 28.5C6.233 28.5 5.6565 28.269 5.1945 27.807C4.7325 27.345 4.501 26.768 4.5 26.076V9.924C4.5 9.233 4.7315 8.6565 5.1945 8.1945C5.6575 7.7325 6.2335 7.501 6.9225 7.5H29.0775C29.7675 7.5 30.3435 7.7315 30.8055 8.1945C31.2675 8.6575 31.499 9.234 31.5 9.924V26.0775C31.5 26.7675 31.2685 27.344 30.8055 27.807C30.3425 28.27 29.7665 28.501 29.0775 28.5H6.924ZM18 18.174L6 10.3275V26.0775C6 26.3465 6.0865 26.5675 6.2595 26.7405C6.4325 26.9135 6.654 27 6.924 27H29.0775C29.3465 27 29.5675 26.9135 29.7405 26.7405C29.9135 26.5675 30 26.346 30 26.076V10.326L18 18.174ZM18 16.5L29.538 9H6.462L18 16.5ZM6 10.3275V9V26.0775C6 26.3465 6.0865 26.5675 6.2595 26.7405C6.4325 26.9135 6.654 27 6.924 27H6V10.3275Z" fill="white"/>
</svg>
