<svg width="36" height="36" viewBox="0 0 36 36" fill="none" xmlns="http://www.w3.org/2000/svg">
<path d="M31.2708 22.2836L24.646 19.315L24.6277 19.3066C24.2837 19.1595 23.9086 19.1005 23.5361 19.1349C23.1636 19.1692 22.8056 19.2959 22.4944 19.5035C22.4577 19.5277 22.4225 19.5539 22.3889 19.5822L18.9661 22.5002C16.7977 21.4469 14.5589 19.225 13.5056 17.0847L16.4278 13.6099C16.456 13.5747 16.4827 13.5396 16.508 13.5016C16.7111 13.1913 16.8343 12.8355 16.8667 12.466C16.8991 12.0965 16.8396 11.7248 16.6936 11.3838V11.3669L13.7166 4.73083C13.5236 4.28542 13.1917 3.91438 12.7704 3.6731C12.3492 3.43182 11.8612 3.33324 11.3794 3.39208C9.47388 3.64282 7.7248 4.57863 6.45883 6.02471C5.19285 7.4708 4.49657 9.32827 4.50001 11.2502C4.50001 22.4158 13.5844 31.5002 24.75 31.5002C26.6719 31.5036 28.5294 30.8074 29.9755 29.5414C31.4216 28.2754 32.3574 26.5263 32.6081 24.6208C32.6671 24.1391 32.5687 23.6513 32.3277 23.2301C32.0867 22.8089 31.7159 22.4769 31.2708 22.2836ZM24.75 29.2502C19.9777 29.245 15.4024 27.3469 12.0278 23.9724C8.65332 20.5978 6.75522 16.0225 6.75001 11.2502C6.74472 9.87699 7.23946 8.54879 8.14183 7.51367C9.0442 6.47854 10.2925 5.80727 11.6536 5.6252C11.653 5.63081 11.653 5.63647 11.6536 5.64208L14.6067 12.2515L11.7 15.7305C11.6705 15.7644 11.6436 15.8006 11.6199 15.8388C11.4082 16.1635 11.2841 16.5374 11.2595 16.9242C11.2348 17.311 11.3105 17.6977 11.4792 18.0466C12.7533 20.6524 15.3788 23.2582 18.0127 24.5308C18.3642 24.698 18.753 24.771 19.1412 24.7429C19.5295 24.7148 19.9037 24.5865 20.2275 24.3705C20.2637 24.3463 20.2984 24.32 20.3316 24.2918L23.7502 21.3752L30.3595 24.3354H30.375C30.1952 25.6984 29.5249 26.9492 28.4896 27.8538C27.4543 28.7584 26.1248 29.2548 24.75 29.2502Z" fill="white"/>
</svg>
